<svg width="600" height="600" viewBox="0 0 600 600" fill="none" xmlns="http://www.w3.org/2000/svg">
<path d="M300.492 551.986C352.407 551.986 394.492 543.927 394.492 533.986C394.492 524.045 352.407 515.986 300.492 515.986C248.577 515.986 206.492 524.045 206.492 533.986C206.492 543.927 248.577 551.986 300.492 551.986Z" fill="#D8C997" fill-opacity="0.06"/>
<path d="M451.96 244.1C449.744 371.648 355.934 465.903 317.083 499.538C307.546 507.795 293.411 507.76 283.875 499.502C244.533 465.432 149 369.334 149 239.5C149 155.91 216.701 88.1292 300.261 88.0002C385.481 87.8692 453.441 158.893 451.96 244.1Z" fill="#FFD500"/>
<path d="M300.5 347C360.423 347 409 298.423 409 238.5C409 178.577 360.423 130 300.5 130C240.577 130 192 178.577 192 238.5C192 298.423 240.577 347 300.5 347Z" fill="white"/>
<path d="M384.22 169.49C365.47 154.04 341.44 144.75 315.25 144.75C255.33 144.75 206.75 193.33 206.75 253.25C206.75 279.44 216.04 303.47 231.49 322.22C207.37 302.32 192 272.2 192 238.5C192 178.58 240.58 130 300.5 130C334.2 130 364.32 145.37 384.22 169.49Z" fill="#FFE082"/>
<path d="M451.96 244.1C449.74 371.65 355.93 465.9 317.08 499.54C307.55 507.79 293.41 507.76 283.88 499.5C265.52 483.6 234.93 454.2 207.52 414.18C232.98 424.8 277.9 438.21 321.5 425C385.75 405.53 484.12 256.22 399.8 125.62C432.47 154.43 452.78 197.11 451.96 244.1Z" fill="#DEB900"/>
<path d="M275.381 100.384C255.694 103.477 201.13 117.45 178.441 178.562C175.901 185.404 185.139 190.289 189.302 184.295C206.639 159.333 235.581 129.056 277.45 120.714C280.282 120.15 282.315 117.65 282.363 114.764L282.5 106.604C282.563 102.774 279.165 99.7902 275.381 100.384Z" fill="#FFE37C"/>
<path d="M235 239H365" stroke="#EF7C00" stroke-width="40" stroke-miterlimit="10" stroke-linecap="round" stroke-linejoin="round"/>
<path d="M300 174V304" stroke="#EF7C00" stroke-width="45" stroke-miterlimit="10" stroke-linecap="round" stroke-linejoin="round"/>
</svg>
