<svg width="303" height="464" viewBox="0 0 303 464" fill="none" xmlns="http://www.w3.org/2000/svg">
<g clip-path="url(#clip0_6_2)">
<path d="M151.492 463.986C203.407 463.986 245.492 455.927 245.492 445.986C245.492 436.045 203.407 427.986 151.492 427.986C99.5773 427.986 57.4919 436.045 57.4919 445.986C57.4919 455.927 99.5773 463.986 151.492 463.986Z" fill="black" fill-opacity="0.05"/>
<path d="M302.96 156.1C300.744 283.648 206.934 377.903 168.083 411.538C158.546 419.795 144.411 419.76 134.875 411.502C95.533 377.432 0 281.334 0 151.5C0 67.9102 67.701 0.129181 151.261 0.000180927C236.481 -0.130819 304.441 70.8932 302.96 156.1Z" fill="#FFD500"/>
<path d="M151.5 259C211.423 259 260 210.423 260 150.5C260 90.5773 211.423 42.0002 151.5 42.0002C91.5771 42.0002 43 90.5773 43 150.5C43 210.423 91.5771 259 151.5 259Z" fill="white"/>
<path d="M235.22 81.4902C216.47 66.0402 192.44 56.7502 166.25 56.7502C106.33 56.7502 57.75 105.33 57.75 165.25C57.75 191.44 67.04 215.47 82.49 234.22C58.37 214.32 43 184.2 43 150.5C43 90.5802 91.58 42.0002 151.5 42.0002C185.2 42.0002 215.32 57.3702 235.22 81.4902Z" fill="#FFE082"/>
<path d="M302.96 156.1C300.74 283.65 206.93 377.9 168.08 411.54C158.55 419.79 144.41 419.76 134.88 411.5C116.52 395.6 85.93 366.2 58.52 326.18C83.98 336.8 128.9 350.21 172.5 337C236.75 317.53 335.12 168.22 250.8 37.6202C283.47 66.4302 303.78 109.11 302.96 156.1Z" fill="#DEB900"/>
<path d="M126.381 12.3842C106.694 15.4772 52.13 29.4502 29.441 90.5622C26.901 97.4042 36.139 102.289 40.302 96.2952C57.639 71.3332 86.581 41.0562 128.45 32.7142C131.282 32.1502 133.315 29.6502 133.363 26.7642L133.5 18.6042C133.563 14.7742 130.165 11.7902 126.381 12.3842Z" fill="#FFE37C"/>
<path d="M86 151H216" stroke="#EF7C00" stroke-width="40" stroke-miterlimit="10" stroke-linecap="round" stroke-linejoin="round"/>
<path d="M151 86V216" stroke="#EF7C00" stroke-width="45" stroke-miterlimit="10" stroke-linecap="round" stroke-linejoin="round"/>
</g>
<defs>
<clipPath id="clip0_6_2">
<rect width="303" height="464" fill="white"/>
</clipPath>
</defs>
</svg>
